<svg xmlns="http://www.w3.org/2000/svg" viewBox="0 0 1440 560" preserveAspectRatio="xMidYMid slice">
  <defs>
    <radialGradient id="glowBlue" cx="72%" cy="44%" r="46%">
      <stop stop-color="#0A7CFF" stop-opacity=".42"/>
      <stop offset=".48" stop-color="#073D98" stop-opacity=".22"/>
      <stop offset="1" stop-color="#020B22" stop-opacity="0"/>
    </radialGradient>
    <radialGradient id="glowViolet" cx="14%" cy="22%" r="36%">
      <stop stop-color="#8B2DFF" stop-opacity=".42"/>
      <stop offset=".55" stop-color="#341189" stop-opacity=".16"/>
      <stop offset="1" stop-color="#020B22" stop-opacity="0"/>
    </radialGradient>
    <linearGradient id="wave" x1="0" y1="0" x2="1440" y2="0" gradientUnits="userSpaceOnUse">
      <stop stop-color="#7B2CFF"/>
      <stop offset=".45" stop-color="#008DFF"/>
      <stop offset="1" stop-color="#00D6FF"/>
    </linearGradient>
    <pattern id="dots" width="26" height="26" patternUnits="userSpaceOnUse">
      <circle cx="2" cy="2" r="1.3" fill="#47B8FF" opacity=".24"/>
    </pattern>
    <filter id="softGlow" x="-10%" y="-60%" width="120%" height="220%">
      <feGaussianBlur stdDeviation="4" result="blur"/>
      <feMerge>
        <feMergeNode in="blur"/>
        <feMergeNode in="SourceGraphic"/>
      </feMerge>
    </filter>
  </defs>
  <rect width="1440" height="560" fill="#020B22"/>
  <rect width="1440" height="560" fill="url(#glowBlue)"/>
  <rect width="1440" height="560" fill="url(#glowViolet)"/>
  <rect width="1440" height="560" fill="url(#dots)" opacity=".75"/>
  <g fill="none" stroke="url(#wave)" stroke-width="3" filter="url(#softGlow)" opacity=".86">
    <path d="M-40 202C118 112 221 276 382 187 551 94 652 176 790 137c157-44 271-141 448-59 91 42 174 58 260 18"/>
    <path d="M-30 246C102 180 220 322 388 235c147-76 252-13 397-66 168-62 283-158 466-76 80 36 155 50 250 8" opacity=".7"/>
    <path d="M-50 291C103 231 217 370 397 281c140-69 255-11 392-51 164-47 280-135 469-50 93 42 164 46 242 5" opacity=".52"/>
  </g>
  <g fill="none" stroke="#2FB7FF" stroke-width="1" opacity=".22">
    <path d="M0 410C178 330 330 472 512 384c184-89 327 7 512-73 156-68 269-119 416-67"/>
    <path d="M0 454C171 379 319 510 515 427c179-76 329 12 506-62 174-73 294-119 419-62"/>
  </g>
</svg>
